<svg width="30" height="36" viewBox="0 0 30 36" fill="none" xmlns="http://www.w3.org/2000/svg">
<path d="M14.48 7.89231C16.04 7.89231 17.9956 6.8487 19.1602 5.45721C20.2148 4.19618 20.9839 2.43509 20.9839 0.673998C20.9839 0.434837 20.9619 0.195677 20.918 0C19.1821 0.0652257 17.0947 1.15232 15.8423 2.60903C14.8535 3.71786 13.9526 5.45722 13.9526 7.24005C13.9526 7.50095 13.9966 7.76186 14.0186 7.84883C14.1284 7.87057 14.3042 7.89231 14.48 7.89231ZM8.98682 34.2C11.1182 34.2 12.063 32.7868 14.7217 32.7868C17.4243 32.7868 18.0176 34.1565 20.3906 34.1565C22.7197 34.1565 24.2798 32.0258 25.752 29.9386C27.3999 27.547 28.0811 25.1989 28.125 25.0901C27.9712 25.0467 23.5107 23.2421 23.5107 18.1762C23.5107 13.7844 27.0264 11.8058 27.2241 11.6537C24.895 8.34889 21.3574 8.26192 20.3906 8.26192C17.7759 8.26192 15.6445 9.82734 14.3042 9.82734C12.854 9.82734 10.9424 8.34889 8.6792 8.34889C4.37256 8.34889 0 11.8711 0 18.5241C0 22.6551 1.62598 27.0252 3.62549 29.8516C5.33936 32.2432 6.8335 34.2 8.98682 34.2Z" fill="black"/>
</svg>
