<svg width="24" height="24" viewBox="0 0 24 24" fill="none" xmlns="http://www.w3.org/2000/svg">
<path d="M3.99998 14.8851L2.99998 14.8851L3.99998 14.8851ZM6.73289 18.0834L6.87024 17.0929L6.87024 17.0929L6.73289 18.0834ZM16.9192 18.0834L16.7819 17.0929L16.7819 17.0929L16.9192 18.0834ZM6.73912 8.08696C6.73912 5.27751 9.01662 3 11.8261 3V1C7.91205 1 4.73912 4.17294 4.73912 8.08696H6.73912ZM6.73912 10.1795V8.08696H4.73912V10.1795H6.73912ZM4.99998 14.8851C4.99998 14.45 5.11885 14.0456 5.32531 13.6994L3.60758 12.675C3.22151 13.3224 2.99998 14.0794 2.99998 14.8851L4.99998 14.8851ZM6.87024 17.0929C5.79996 16.9445 4.99998 16.0123 4.99998 14.8851L2.99998 14.8851C2.99998 16.9637 4.4904 18.782 6.59554 19.074L6.87024 17.0929ZM11.8261 17.522C10.3522 17.522 8.4388 17.3104 6.87024 17.0929L6.59554 19.074C8.18035 19.2937 10.2072 19.522 11.8261 19.522V17.522ZM16.7819 17.0929C15.2133 17.3104 13.2999 17.522 11.8261 17.522V19.522C13.4449 19.522 15.4718 19.2937 17.0566 19.074L16.7819 17.0929ZM18.6522 14.8851C18.6522 16.0123 17.8522 16.9445 16.7819 17.0929L17.0566 19.074C19.1617 18.782 20.6522 16.9637 20.6522 14.8851H18.6522ZM18.3268 13.6994C18.5333 14.0456 18.6522 14.45 18.6522 14.8851H20.6522C20.6522 14.0794 20.4306 13.3224 20.0446 12.675L18.3268 13.6994ZM16.913 8.08696V10.1795H18.913V8.08696H16.913ZM11.8261 3C14.6355 3 16.913 5.27751 16.913 8.08696H18.913C18.913 4.17294 15.7401 1 11.8261 1V3ZM20.0446 12.675C19.7266 12.1419 19.4586 11.7475 19.2327 11.295C19.02 10.8687 18.913 10.5128 18.913 10.1795H16.913C16.913 10.9466 17.1606 11.622 17.4433 12.1882C17.7128 12.7282 18.0812 13.2875 18.3268 13.6994L20.0446 12.675ZM4.73912 10.1795C4.73912 10.5128 4.63218 10.8687 4.4194 11.295C4.19352 11.7475 3.92551 12.1419 3.60758 12.675L5.32531 13.6994C5.57098 13.2875 5.9393 12.7282 6.20885 12.1882C6.49151 11.6219 6.73912 10.9466 6.73912 10.1795H4.73912Z" fill="currentColor"/>
<path d="M14 20.834C13.5326 21.5369 12.7335 22.0002 11.8261 22.0002C10.9187 22.0002 10.1195 21.5369 9.65217 20.834" stroke="currentColor" stroke-width="2" stroke-linecap="round"/>
</svg>
